<svg width="153" height="153" viewBox="0 0 153 153" fill="none" xmlns="http://www.w3.org/2000/svg">
<path d="M53.1 33.8C56 33.8 58.5 34.6 60.4 35.3C62.9 36.2 65.3 37.4 68.1 39.1C70.9 40.9 73.7 42.9 76.6 45.3C79.5 42.9 82.2 40.8 85 39.1C87.7 37.4 90.2 36.2 92.7 35.3C94.6 34.6 97.2 33.9 100.1 33.9C100.9 33.9 101.7 34 102.6 34.1C103.5 34.3 104.4 34.5 105.5 35C106 35.2 106.6 35.5 106.9 35.7L108.1 36.5C109.6 37.7 110.9 39.5 111.8 41.5C113.1 44.6 113.5 48.1 113.2 52.5C112.6 58.8 110.7 65.5 107.2 72.8C106.2 74.8 105.2 76.9 104 79L104.7 80.3C106.5 83.6 108.7 88.1 110.4 93.6C111.3 96.7 111.9 99.3 112.2 102C112.4 104.7 112.5 108.3 110.9 111.9C110 113.8 108.7 115.4 107.1 116.6C106.8 116.8 106.7 116.9 106.5 117L105.8 117.4C105.4 117.6 105 117.8 104.7 118L104.4 118.1C103.5 118.4 102.6 118.7 101.5 118.9C100.6 119 99.8 119.1 98.9 119.1C96.3 119.1 93.6 118.6 90.4 117.5C85.8 115.9 81.3 113.4 76.7 110.1C72 113.5 67.5 115.9 63 117.5C59.9 118.6 57.2 119.1 54.6 119.1C53.7 119.1 52.8 119 51.9 118.9C50.7 118.7 49.8 118.5 48.9 118.1L48.6 118C48.2 117.8 47.8 117.7 47.4 117.4L46.8 117C46.6 116.9 46.4 116.8 46.3 116.7C44.5 115.4 43.2 113.8 42.4 111.9C40.8 108.4 40.9 104.8 41.1 102C41.4 99.3 41.9 96.7 42.8 93.6C44.5 88.2 46.7 83.7 48.5 80.3C48.7 79.9 49 79.4 49.2 79C48 76.9 46.9 74.9 46 72.8C42.5 65.4 40.6 58.8 40 52.5C39.7 48.1 40.1 44.6 41.4 41.5C42.3 39.5 43.5 37.8 45.1 36.5L46.3 35.6C46.6 35.4 47.1 35.1 47.6 34.9C48.7 34.4 49.6 34.2 50.5 34C51.4 33.8 52.3 33.8 53.1 33.8ZM54.7 69.9C56.1 67.8 57.3 66.2 58.2 65L59.7 63L61.2 61.1C62.2 59.8 63.8 58 65.8 55.7C68.1 53.1 70.7 50.5 73.5 47.9C70.9 46 68.4 44.4 65.8 43C63.3 41.7 61 40.8 58.8 40.2C57.1 39.8 55.6 39.5 54.3 39.5C53.4 39.5 52.6 39.6 51.8 39.8C51.3 39.9 50.8 40.1 50.5 40.3C50.2 40.5 50.1 40.5 49.9 40.7L49.4 41.1L49.3 41.2C48.6 41.9 48.1 42.7 47.8 43.7C47.2 45.6 47.1 48.1 47.6 51.4C48.4 56.4 50.5 61.8 54 68.6C54.3 69.1 54.5 69.5 54.7 69.9ZM98.3 69.9C98.5 69.5 98.7 69.1 98.9 68.7C102.4 62 104.5 56.5 105.3 51.5C105.8 48.3 105.7 45.7 105.1 43.8C104.8 42.8 104.3 41.9 103.6 41.3L103.1 40.8C102.9 40.6 102.8 40.6 102.7 40.5C102.2 40.2 101.7 40 101.1 39.8C100.4 39.6 99.5 39.5 98.6 39.5C97.3 39.5 95.7 39.7 94.1 40.2C91.9 40.8 89.7 41.7 87.2 43C84.6 44.3 82.1 45.9 79.5 47.9C82.3 50.5 84.9 53.1 87.2 55.7C89.2 58 90.7 59.8 91.8 61.1L93.3 63.1L94.8 65.1C95.7 66.2 96.9 67.8 98.3 69.9ZM76.5 98.2C80.7 94.2 84.6 89.8 88.2 85.1C91.1 81.3 93.9 77.3 96.4 73.2C96.3 73 96.2 72.8 96.1 72.7C94.8 70.6 93.6 68.9 92.7 67.7L88.7 62.6C87.7 61.4 86.4 59.9 84.8 58.1C82.3 55.4 79.8 53 77.1 50.8C76.9 50.7 76.8 50.5 76.6 50.4C76.4 50.5 76.3 50.7 76.1 50.8C73.4 53.1 70.9 55.4 68.4 58.1C66.6 60 65.3 61.6 64.3 62.8L60.5 67.7C59.6 68.9 58.4 70.6 57.1 72.7L56.8 73.3C59.3 77.4 62 81.4 64.9 85.2C68.4 89.8 72.3 94.2 76.5 98.2ZM100 111.9H100.5C102.6 111.8 104.3 110.8 105.3 109C106.3 107.3 106.7 105.1 106.7 102.1C106.7 99.9 106.3 97.4 105.7 94.7C104.8 90.9 103.5 87.1 101.5 82.7C99.8 85.5 97.8 88.2 95.7 90.9C91.8 95.9 87.7 100.3 83.4 104.2C86.8 106.8 89.9 108.7 92.9 110.1C95.8 111.3 98.1 111.9 100 111.9ZM53 111.9C54.9 111.9 57.2 111.3 60 110.1C63 108.8 66.2 106.8 69.5 104.2C65.2 100.3 61.1 95.9 57.2 90.9C55.1 88.2 53.2 85.4 51.4 82.6C49.4 86.9 48.1 90.7 47.2 94.6C46.6 97.4 46.3 99.8 46.2 102C46.2 104.9 46.7 107.2 47.6 108.9C48.6 110.6 50.3 111.7 52.4 111.8L53 111.9ZM53.1 29.8C52 29.8 50.9 29.9 49.8 30.1H49.7H49.6C48.6 30.3 47.3 30.6 45.9 31.3C44.7 31.8 44.2 32.1 43.9 32.4L42.6 33.3L42.5 33.4L42.4 33.5C40.3 35.2 38.7 37.4 37.6 40C36 43.7 35.5 47.8 35.9 52.9C36.5 59.7 38.6 66.8 42.2 74.6C42.9 76.1 43.7 77.6 44.5 79.1C42.7 82.5 40.6 87 38.9 92.4C37.9 95.7 37.3 98.7 37 101.6C36.7 104.9 36.7 109.1 38.6 113.5C39.7 116.1 41.5 118.2 43.8 119.9C44 120 44.2 120.2 44.6 120.4H44.7H44.8L45.4 120.7C46 121.1 46.6 121.3 47.1 121.5L47.4 121.6C48.5 122 49.8 122.4 51.2 122.6C52.3 122.8 53.3 122.8 54.4 122.8C57.4 122.8 60.4 122.2 64.1 121C68.3 119.5 72.3 117.4 76.5 114.7C80.7 117.5 84.7 119.5 88.9 121C92.5 122.3 95.6 122.8 98.7 122.8C99.8 122.8 100.8 122.7 101.9 122.6C103.3 122.4 104.5 122 105.6 121.6H105.7H105.8L106.1 121.5C106.6 121.3 107.2 121 107.7 120.7L108.4 120.3H108.5H108.6C108.9 120.1 109.1 119.9 109.4 119.7C111.5 118.1 113.3 116 114.4 113.4C116.3 109 116.3 104.8 116 101.5C115.7 98.6 115.1 95.6 114.1 92.3C112.4 86.9 110.2 82.4 108.4 79C109.2 77.5 110 76 110.7 74.5C114.4 66.7 116.4 59.6 117 52.8C117.4 47.7 116.9 43.6 115.3 39.9C114.2 37.3 112.5 35 110.5 33.4L110.4 33.3L110.3 33.2L109.1 32.4C108.6 32.1 108.1 31.8 107.1 31.3C105.7 30.6 104.4 30.3 103.3 30.1H103.2H103.1C102.1 29.9 101.1 29.9 100 29.9C96.4 29.9 93.3 30.9 91.2 31.6C88.4 32.6 85.7 33.9 82.8 35.8C80.7 37.1 78.6 38.6 76.5 40.3C74.4 38.6 72.3 37.2 70.2 35.8C67.2 34 64.6 32.7 61.8 31.6C59.3 30.6 56.5 29.8 53.1 29.8ZM52.9 43.8C53.3 43.7 53.8 43.6 54.3 43.6C55.3 43.6 56.4 43.8 57.8 44.1C59.7 44.6 61.7 45.5 64 46.6C65.1 47.2 66.1 47.8 67.2 48.4C65.7 49.9 64.2 51.5 62.9 53C60.9 55.3 59.3 57.2 58.2 58.5L56.7 60.4L56.6 60.5L55.4 62.1C53.5 57.8 52.3 54.2 51.7 50.8C51.3 48.2 51.3 46.3 51.7 45C51.8 44.6 52 44.3 52.2 44.1L52.3 44C52.3 44 52.4 44 52.4 43.9L52.5 43.8C52.5 43.9 52.7 43.8 52.9 43.8ZM95.2 44.1C96.5 43.8 97.7 43.6 98.7 43.6C99.2 43.6 99.7 43.7 100.1 43.8C100.3 43.9 100.5 43.9 100.7 44L101 44.2C101.2 44.4 101.3 44.7 101.4 45C101.7 45.9 101.9 47.6 101.4 50.8C100.8 54.2 99.6 57.8 97.7 62.1L96.5 60.5L95 58.5C94 57.3 92.4 55.3 90.3 53C89 51.5 87.5 50 86 48.4C87.1 47.7 88.1 47.1 89.2 46.6C91.3 45.5 93.3 44.7 95.2 44.1ZM67.4 65.2C68.4 64 69.6 62.5 71.3 60.8C73 59 74.8 57.2 76.6 55.6C78.4 57.2 80.1 58.9 81.9 60.8C83.5 62.5 84.7 63.9 85.6 65.1L89.5 70.1C90.1 70.9 90.9 72 91.7 73.3C89.6 76.6 87.4 79.7 85.1 82.7C82.4 86.2 79.6 89.5 76.5 92.6C73.5 89.5 70.6 86.2 67.9 82.7C65.6 79.7 63.3 76.5 61.3 73.3C62.2 72 63 70.9 63.6 70L67.4 65.2ZM89.8 103.8C93 100.6 96 97.2 99 93.4C99.6 92.7 100.1 91.9 100.7 91.2C101.2 92.7 101.6 94.1 101.9 95.6C102.5 98.1 102.7 100.2 102.8 102.2C102.8 104.4 102.5 106 101.9 107.1C101.6 107.6 101.1 107.9 100.4 107.9H100C98.7 107.9 96.9 107.4 94.7 106.4C93.1 105.7 91.5 104.8 89.8 103.8ZM50.3 102.1C50.3 100.1 50.6 98 51.2 95.5C51.5 94 51.9 92.6 52.4 91.1C52.9 91.8 53.5 92.6 54.1 93.3C57 97 60.1 100.5 63.3 103.7C61.6 104.8 60 105.7 58.4 106.4C56.2 107.3 54.4 107.8 53.1 107.8H52.7C52 107.8 51.5 107.5 51.3 107C50.6 106 50.3 104.3 50.3 102.1Z" fill="#3A9EC4"/>
<path d="M76.5 152.6C34.5 152.6 0.300003 118.4 0.300003 76.4C0.300003 34.4 34.5 0.199997 76.5 0.199997C118.5 0.199997 152.7 34.4 152.7 76.4C152.7 118.4 118.6 152.6 76.5 152.6ZM76.5 4.10001C36.7 4.10001 4.3 36.5 4.3 76.3C4.3 116.1 36.7 148.5 76.5 148.5C116.3 148.5 148.7 116.1 148.7 76.3C148.7 36.5 116.4 4.10001 76.5 4.10001Z" fill="#3A9EC4"/>
</svg>
