<svg width="153" height="153" viewBox="0 0 153 153" fill="none" xmlns="http://www.w3.org/2000/svg">
<path d="M90.5 76C92.4 77.8 94.1 79.8 96 81.4C101.4 86 99.6 94.3 92.4 95.9C93.5 102.3 88.5 107 82.2 105.6C81.7 108.1 80.4 110 78.1 111.2C75.9 112.4 73.5 112.5 71.2 111.6C69.2 118.1 61.9 119.6 57.3 115.1C56.3 116.2 55.2 117.3 54.1 118.4C49.5 122.9 42.9 123.6 37.9 120.1C31.9 116 30.8 107.2 35.8 101.8C37.6 99.8 39.7 98 41.7 96.1C41.3 95.3 40.9 94.6 40.6 93.9C38.4 89.6 36.6 85.1 35.6 80.3C35.5 79.8 35.2 79.2 34.8 78.9C33 77 31.1 75.2 29.3 73.4C28.2 72.3 28.2 71.2 29.3 70.1C37.1 62.3 44.8 54.5 52.6 46.8C53.7 45.7 54.9 45.8 56 46.9C57.6 48.6 59.5 50 61.8 50.5C63.9 50.9 65.9 50.8 67.9 50C70.4 48.9 72.7 48.9 74.8 50.7C75.3 49.1 75.7 47.6 76.3 46.1C80.4 35.5 91.2 28.9 102.3 30.2C104 30.4 105.7 30.8 107.3 31.3C110.1 32.1 110.7 34.6 108.6 36.6C104.9 40.4 101.1 44.1 97.4 47.9C96.3 49 96.3 49 97.4 50.1C100 52.7 102.5 55.2 105.1 57.8C105.8 58.5 106.3 58.5 107 57.8C110.7 54 114.5 50.3 118.2 46.5C120.4 44.3 122.8 44.9 123.8 47.9C128.4 62.4 118.7 78 103.7 80.3C102.5 80.5 101.2 80.5 99.9 80.6C98.4 80.6 97.4 79.8 97.4 78.6C97.4 77.5 98.4 76.5 99.9 76.5C109.5 76.3 117.2 70.4 120 61.3C121 57.8 121.1 54.3 120.3 50.6C119.9 51 119.6 51.2 119.3 51.5C116.1 54.7 113 57.8 109.8 61C107.5 63.2 104.7 63.2 102.4 61C99.7 58.3 97.1 55.7 94.4 53C91.8 50.4 91.8 47.9 94.5 45.2C97.6 42.1 100.6 39 103.7 36C104 35.7 104.3 35.4 104.7 35C100.3 34 96.3 34.3 92.3 35.8C84.8 38.7 79.2 46.3 79 54C79 54.5 79.3 55.2 79.6 55.6C83.2 59.3 86.8 63 90.5 66.5C93.1 69.2 94 72.6 90.5 76ZM44.6 93C48.6 89.1 52.4 85.2 56.2 81.4C56.5 81.1 56.8 80.8 57.1 80.5C57.9 79.9 59 79.9 59.7 80.6C60.5 81.3 60.6 82.4 60 83.3C59.7 83.7 59.4 84 59.1 84.3C52.5 90.9 45.9 97.5 39.3 104.2C36.1 107.4 35.9 112.1 38.8 115.5C41.5 118.6 46.3 119.2 49.8 116.7C51.5 115.5 52.9 113.8 54.7 112.2C53.3 110.9 52 109.7 50.8 108.5C48.7 106.2 48.1 103.5 49.1 100.5C50.1 97.6 52.2 95.7 55.2 95.3C56.7 95.1 58.3 95.4 59.9 95.4C60.4 93.4 61.6 91.7 63.6 90.6C65.6 89.5 67.7 89.3 69.6 89.8C70.5 88.1 71.3 86.6 72.2 85C70.3 83.7 69.1 81.6 68.8 79.1C62.6 80.1 58 77.3 54 73.2C53.2 72.4 53.4 71.2 54.2 70.5C55 69.8 56 69.7 56.9 70.3C57.2 70.5 57.4 70.8 57.7 71C59.5 72.6 61.5 74 63.9 74.8C66.6 75.6 68.9 75.2 70.9 73.1C72.8 71.1 74.8 69.2 76.8 67.2C78 66 79.2 65.9 80.1 66.9C81 67.8 80.8 69 79.8 70.1C78 71.9 76.1 73.7 74.4 75.6C73.8 76.3 73.3 77.3 73.1 78.2C72.8 79.8 73.8 81.2 75.2 81.9C76.7 82.6 78.3 82.3 79.6 81.1C82.4 78.4 85.1 75.6 87.9 72.8C89 71.7 89 71.1 87.9 69.9C82.8 64.8 77.7 59.7 72.6 54.6C71.6 53.6 70.8 53.4 69.6 54C66.3 55.4 62.8 55.6 59.5 54.3C57.6 53.6 55.9 52.5 54.2 51.6C47.5 58.3 40.6 65.1 33.6 72.1C35.2 73.7 36.9 75.2 38.4 76.9C39 77.5 39.4 78.4 39.5 79.2C40.5 84 42.3 88.5 44.6 93ZM68 93.7C65.9 93.8 64.7 94.6 64 96C63.4 97.4 63.5 98.8 64.7 100C67 102.3 69.3 104.7 71.6 107C73.2 108.6 75.5 108.6 77 107C78.5 105.5 78.5 103.3 77 101.7C74.8 99.4 72.6 97.2 70.3 95C69.6 94.3 68.5 94 68 93.7ZM52.8 103.5C53 103.9 53.1 104.9 53.7 105.4C56.1 107.9 58.5 110.4 61.1 112.8C62.6 114.2 64.9 113.9 66.3 112.5C67.7 111 67.6 108.8 66.2 107.4C65.2 106.3 64.1 105.3 63 104.2C61.7 102.9 60.5 101.6 59.2 100.3C58 99.2 56.6 98.9 55.1 99.6C53.6 100.3 52.8 101.4 52.8 103.5ZM88.6 97.9C88.2 97.1 88 96.1 87.5 95.5C85.1 93 82.6 90.5 80.1 88.1C78.8 86.8 76.6 87 75.2 88.3C73.8 89.6 73.5 91.9 74.7 93.2C77.2 95.9 79.7 98.4 82.4 100.9C83.5 101.9 85 101.9 86.4 101.3C87.6 100.6 88.3 99.5 88.6 97.9ZM82.4 84.4C84.4 86.4 86.5 88.5 88.6 90.6C90.1 92.1 92.5 92.1 93.9 90.6C95.4 89.1 95.4 86.7 93.9 85.2C92.6 83.9 91.2 82.6 90 81.2C89.2 80.4 88.6 79.6 87.9 78.8C85.9 80.9 84.2 82.6 82.4 84.4Z" fill="#3A9EC4"/>
<path d="M43.8 113.7C42.5 113.7 41.4 112.6 41.5 111.2C41.6 109.9 42.7 108.8 44 108.9C45.3 109 46.3 110.1 46.3 111.4C46.2 112.7 45.2 113.7 43.8 113.7Z" fill="#3A9EC4"/>
<path d="M76.6 152.6C34.6 152.6 0.399994 118.4 0.399994 76.4C0.399994 34.4 34.6 0.200012 76.6 0.200012C118.6 0.200012 152.8 34.4 152.8 76.4C152.8 118.4 118.7 152.6 76.6 152.6ZM76.6 4.10002C36.8 4.10002 4.39999 36.5 4.39999 76.3C4.39999 116.1 36.8 148.5 76.6 148.5C116.4 148.5 148.8 116.1 148.8 76.3C148.8 36.5 116.5 4.10002 76.6 4.10002Z" fill="#3A9EC4"/>
</svg>
