<svg width="153" height="153" viewBox="0 0 153 153" fill="none" xmlns="http://www.w3.org/2000/svg">
<path d="M76.6 152.6C34.6 152.6 0.399994 118.4 0.399994 76.4C0.399994 34.4 34.6 0.200012 76.6 0.200012C118.6 0.200012 152.8 34.4 152.8 76.4C152.8 118.4 118.6 152.6 76.6 152.6ZM76.6 4.10001C36.8 4.10001 4.39999 36.5 4.39999 76.3C4.39999 116.1 36.8 148.5 76.6 148.5C116.4 148.5 148.8 116.1 148.8 76.3C148.8 36.5 116.4 4.10001 76.6 4.10001Z" fill="#3A9EC4"/>
<path d="M47.1 70.9C47.1 57.9 47.1 44.8 47.1 31.8C47.1 27.9 49.7 25.5 52.3 25C52.9 24.9 53.5 24.9 54.1 24.9C69.7 24.9 83.7 24.9 99.3 24.9C103.5 24.9 106.2 27.6 106.2 31.8C106.2 57.9 106.2 95 106.2 121.1C106.2 125.3 103.4 128 99.3 128C83.7 128 69.7 128 54.1 128C50.3 128 47.1 125.1 47.1 121C47.1 107.8 47.1 83.9 47.1 70.9ZM103.4 38C84.9 38 68.2 38 49.8 38C49.8 57.3 49.8 87.4 49.8 106.7C68.2 106.7 85 106.7 103.4 106.7C103.4 87.4 103.4 57.3 103.4 38ZM103.4 109.5C84.9 109.5 68.1 109.5 49.7 109.5C49.7 113.6 49.7 117.7 49.7 121.7C49.7 121.9 49.7 122 49.8 122.2C50.3 124.1 51.8 125.2 53.9 125.2C69.5 125.2 83.6 125.2 99.2 125.2C99.4 125.2 99.6 125.2 99.9 125.2C101.7 125.1 103.4 123.6 103.4 121.8C103.5 117.7 103.4 113.6 103.4 109.5ZM49.8 35.2C68.3 35.2 85 35.2 103.5 35.2C103.5 34.1 103.4 33 103.5 31.9C103.7 29.2 101.8 27.3 98.9 27.3C83.5 27.4 69.7 27.3 54.3 27.3C54 27.3 53.6 27.3 53.3 27.3C51.5 27.4 49.9 28.9 49.8 30.7C49.7 32.3 49.8 33.7 49.8 35.2Z" fill="#3A9EC4"/>
<path d="M54 128.4C52 128.4 50.1 127.6 48.7 126.2C47.3 124.8 46.6 122.9 46.6 120.9C46.7 111.2 46.7 95.4 46.6 82.6C46.6 78.2 46.6 74.2 46.6 70.9V60C46.6 50.7 46.6 41.2 46.6 31.8C46.6 27.7 49.4 25 52.2 24.5C52.7 24.4 53.3 24.3 54.1 24.3C63.5 24.3 72.4 24.3 81.4 24.3H99.3C103.7 24.3 106.7 27.3 106.7 31.7C106.7 57.8 106.7 94.9 106.7 121C106.7 125.4 103.7 128.4 99.3 128.4H96.3H74.8C67.9 128.3 61.1 128.3 54 128.4ZM81.3 25.3C72.3 25.3 63.5 25.3 54 25.3C53.3 25.3 52.8 25.3 52.3 25.4C49.9 25.9 47.5 28.2 47.5 31.7C47.5 41.1 47.5 50.7 47.5 59.9V70.8C47.5 74.1 47.5 78.2 47.5 82.5C47.5 95.2 47.5 111.1 47.5 120.8C47.5 122.6 48.1 124.2 49.3 125.4C50.5 126.6 52.1 127.3 53.9 127.3V127.8V127.3C61 127.3 67.8 127.3 74.6 127.3H96.1H99.1C103 127.3 105.5 124.8 105.5 120.9C105.5 94.8 105.5 57.7 105.5 31.6C105.5 27.7 103 25.2 99.1 25.2L81.3 25.3ZM73.5 125.7H54C51.6 125.7 50 124.5 49.4 122.4C49.3 122.2 49.3 122 49.3 121.8C49.3 118.3 49.3 114.8 49.3 111.3V109H104V109.5C104 110.7 104 111.9 104 113.1C104 115.9 104 118.9 104 121.8C104 123.8 102.1 125.6 100 125.7C99.8 125.7 99.6 125.7 99.4 125.7H73.5ZM50.3 110V111.3C50.3 114.8 50.3 118.3 50.3 121.8C50.3 121.9 50.3 122 50.4 122.1C50.8 123.8 52.1 124.7 54 124.7H73.5H99.3C99.6 124.7 99.7 124.7 99.9 124.7C101.5 124.6 102.9 123.2 102.9 121.8C103 118.9 102.9 116 102.9 113.1C102.9 112.1 102.9 111.1 102.9 110H50.3V110ZM103.9 107.2H49.3V37.5H103.9V107.2ZM50.3 106.2H102.9V38.5H50.3V106.2V106.2ZM104 35.7H49.3V35.2C49.3 34.7 49.3 34.3 49.3 33.8C49.3 32.8 49.3 31.8 49.3 30.8C49.4 28.8 51.2 27 53.3 26.9C53.5 26.9 53.7 26.9 53.9 26.9H77.2C84.3 26.9 91.5 26.9 99 26.9C100.6 26.9 102 27.5 102.9 28.5C103.8 29.4 104.2 30.7 104 32C103.9 32.7 104 33.4 104 34.2C104 34.5 104 34.9 104 35.3V35.7ZM50.3 34.7H103C103 34.5 103 34.3 103 34.2C103 33.5 103 32.7 103 31.9C103.1 30.8 102.8 29.8 102.1 29.1C101.4 28.3 100.2 27.9 99 27.9C91.5 27.9 84.3 27.9 77.2 27.9H53.9C53.7 27.9 53.5 27.9 53.3 27.9C51.7 28 50.4 29.4 50.3 30.9C50.2 31.9 50.3 32.8 50.3 33.8C50.3 34.1 50.3 34.4 50.3 34.7Z" fill="#3A9EC4"/>
<path d="M98 76.2C98 81.2 98 97.2 98 102.2C98 103.8 97.6 104.2 96 104.2C94.6 104.2 93.1 104.2 91.7 104.2C90.5 104.2 90 103.7 90 102.5C90 92.2 90 71.1 90 60.8C90 59.5 90.4 59.1 91.7 59.1C93.2 59.1 94.7 59.1 96.2 59.1C97.6 59.1 98 59.6 98 61C98 66 98 71.1 98 76.2ZM95.3 101.5C95.3 91.9 95.3 71.4 95.3 61.8C94.4 61.8 93.6 61.8 92.8 61.8C92.8 71.4 92.8 91.9 92.8 101.5C93.7 101.5 94.4 101.5 95.3 101.5Z" fill="#3A9EC4"/>
<path d="M93.7 104.7C93.1 104.7 92.4 104.7 91.8 104.7C90.3 104.7 89.6 104 89.6 102.5C89.6 92.2 89.6 71.1 89.6 60.8C89.6 59.2 90.2 58.6 91.8 58.6C93.3 58.6 94.8 58.6 96.3 58.6C97.9 58.6 98.6 59.3 98.6 61C98.6 64.7 98.6 68.4 98.6 72.1V81.4C98.6 88.3 98.6 98.5 98.6 102.3C98.6 104.1 98 104.8 96.1 104.8L93.7 104.7ZM93.9 59.5C93.2 59.5 92.5 59.5 91.7 59.5C90.7 59.5 90.5 59.7 90.5 60.7C90.5 71 90.5 92.1 90.5 102.4C90.5 103.4 90.7 103.6 91.7 103.6C92.3 103.6 93 103.6 93.6 103.6H96C97.3 103.6 97.5 103.4 97.5 102.1C97.5 98.2 97.5 88 97.5 81.2V72C97.5 68.3 97.5 64.6 97.5 60.9C97.5 59.8 97.3 59.6 96.2 59.5C95.5 59.5 94.7 59.5 93.9 59.5ZM95.8 102H92.3V61.3H95.8V102ZM93.3 101H94.8V62.3H93.3V101Z" fill="#3A9EC4"/>
<path d="M74.7 78.9C74.7 83.1 74.7 98.2 74.7 102.4C74.7 103.8 74.3 104.3 72.8 104.3C71.4 104.3 69.9 104.3 68.5 104.3C67.2 104.3 66.7 103.9 66.7 102.6C66.7 94 66.7 74.6 66.7 66C66.7 64.8 67.2 64.3 68.4 64.3C69.9 64.3 71.4 64.3 73 64.3C74.2 64.3 74.7 64.8 74.7 66C74.8 70.2 74.7 74.5 74.7 78.9ZM72 67C71.2 67 70.4 67 69.6 67C69.6 74.9 69.6 93.6 69.6 101.5C70.5 101.5 71.2 101.5 72 101.5C72 93.6 72 74.8 72 67Z" fill="#3A9EC4"/>
<path d="M70.6 104.7C69.9 104.7 69.3 104.7 68.6 104.7C67 104.7 66.3 104 66.3 102.5C66.3 93.9 66.3 74.5 66.3 65.9C66.3 64.4 67 63.7 68.5 63.7C70 63.7 71.6 63.7 73.1 63.7C74.6 63.7 75.3 64.4 75.3 65.9C75.3 68.8 75.3 71.8 75.3 74.7V82.9C75.3 89.1 75.3 99 75.3 102.3C75.3 104 74.7 104.7 72.9 104.7H70.6ZM70.8 64.7C70 64.7 69.3 64.7 68.5 64.7C67.6 64.7 67.3 65 67.3 65.9C67.3 74.5 67.3 93.9 67.3 102.5C67.3 103.4 67.5 103.7 68.6 103.7C69.3 103.7 69.9 103.7 70.6 103.7H72.9C74.1 103.7 74.3 103.5 74.3 102.3C74.3 99 74.3 89.1 74.3 82.9V74.7C74.3 71.8 74.3 68.8 74.3 65.9C74.3 65 74 64.7 73.1 64.7C72.3 64.7 71.6 64.7 70.8 64.7ZM72.5 101.9H69.1V66.4H72.5V101.9ZM70.1 100.9H71.5V67.4H70.1V100.9Z" fill="#3A9EC4"/>
<path d="M78.5 82.1C78.5 79 78.5 75.8 78.5 72.7C78.5 71.3 78.9 70.9 80.3 70.9C81.7 70.9 83.2 70.9 84.6 70.9C86.1 70.9 86.4 71.3 86.4 72.8C86.4 77.7 86.4 93.6 86.4 98.5C86.4 99.8 86.4 101.2 86.4 102.5C86.4 103.8 85.9 104.2 84.7 104.2C83.2 104.2 81.7 104.2 80.1 104.2C79 104.2 78.5 103.7 78.5 102.6C78.5 99.4 78.5 85.3 78.5 82.1ZM83.6 101.5C83.6 95.8 83.6 79.3 83.6 73.6C82.7 73.6 81.9 73.6 81.2 73.6C81.2 79.3 81.2 95.8 81.2 101.5C82 101.5 82.8 101.5 83.6 101.5Z" fill="#3A9EC4"/>
<path d="M82.3 104.7C81.5 104.7 80.8 104.7 80.1 104.7C78.7 104.7 78 104 78 102.6C78 100.1 78 90.7 78 85.3V82.1V79.3C78 77.1 78 74.9 78 72.7C78 71 78.6 70.4 80.3 70.4H82.4H84.5C86.2 70.4 86.8 71 86.8 72.8C86.8 76.7 86.8 87.2 86.8 94V99.7C86.8 100.6 86.8 101.6 86.8 102.5C86.8 104 86.1 104.7 84.6 104.7C83.9 104.7 83.1 104.7 82.3 104.7ZM82.4 71.4H80.3C79.1 71.4 79 71.5 79 72.7C79 74.9 79 77.1 79 79.3V82.1V85.3C79 90.7 79 100 79 102.6C79 103.5 79.3 103.7 80.1 103.7C81.6 103.7 83.1 103.7 84.7 103.7C85.7 103.7 85.9 103.4 85.9 102.5C85.9 101.6 85.9 100.6 85.9 99.7V94C85.9 87.2 85.9 76.7 85.9 72.8C85.9 71.6 85.8 71.4 84.6 71.4H82.4ZM84.1 102H80.7V73.1H84.1V102ZM81.7 101H83.1V74.1H81.7V101Z" fill="#3A9EC4"/>
<path d="M63.1 96.2C63.1 98.3 63.1 100.4 63.1 102.5C63.1 103.7 62.6 104.2 61.4 104.2C59.9 104.2 58.4 104.2 56.8 104.2C55.6 104.2 55.1 103.7 55.1 102.5C55.1 98.3 55.1 83.2 55.1 79C55.1 77.9 55.6 77.4 56.7 77.4C58.3 77.4 59.9 77.4 61.5 77.4C62.6 77.4 63 77.9 63 79C63.1 81.1 63.1 94.1 63.1 96.2ZM60.4 101.5C60.4 98 60.4 83.7 60.4 80.2C59.5 80.2 58.7 80.2 57.9 80.2C57.9 83.7 57.9 98 57.9 101.5C58.6 101.5 59.2 101.5 59.8 101.5C60 101.5 60.2 101.5 60.4 101.5Z" fill="#3A9EC4"/>
<path d="M59.2 104.7C58.4 104.7 57.6 104.7 56.9 104.7C55.4 104.7 54.7 104 54.7 102.5C54.7 98.3 54.7 83.2 54.7 79C54.7 77.6 55.4 76.9 56.8 76.9C58.4 76.9 60 76.9 61.6 76.9C63 76.9 63.6 77.6 63.6 79C63.6 80.7 63.6 89.3 63.6 93.7V96.1V97.9C63.6 99.4 63.6 100.9 63.6 102.3C63.6 103.8 62.9 104.5 61.5 104.5C60.7 104.7 60 104.7 59.2 104.7ZM59.2 77.9C58.4 77.9 57.6 77.9 56.8 77.9C55.9 77.9 55.7 78.2 55.7 79C55.7 83.2 55.7 98.3 55.7 102.5C55.7 103.4 56 103.7 56.9 103.7C58.4 103.7 59.9 103.7 61.5 103.7C62.4 103.7 62.7 103.4 62.7 102.5C62.7 101 62.7 99.5 62.7 98.1V96.3V93.9C62.7 89.4 62.7 80.8 62.7 79.2C62.7 78.4 62.5 78.1 61.6 78.1C60.8 77.9 60 77.9 59.2 77.9ZM59.1 102H57.5V79.7H61V101.9L60.3 102C60.1 102 60 102 59.9 102H59.1ZM58.5 101H59.9H60V80.7H58.5V101Z" fill="#3A9EC4"/>
<path d="M76.7 112C79.6 112 81.9 114.5 81.9 117.3C81.9 120.2 79.4 122.6 76.5 122.6C73.6 122.5 71.2 120.1 71.3 117.3C71.3 114.3 73.7 112 76.7 112ZM76.6 119.9C78 119.9 79.2 118.8 79.2 117.3C79.2 115.9 78 114.6 76.5 114.6C75.1 114.6 73.9 115.8 73.9 117.2C74 118.7 75.1 119.9 76.6 119.9Z" fill="#3A9EC4"/>
<path d="M76.6 123.1H76.5C73.4 123 70.7 120.4 70.8 117.3C70.8 114.1 73.4 111.6 76.6 111.6C78.2 111.6 79.6 112.2 80.7 113.3C81.8 114.4 82.4 115.9 82.4 117.4C82.4 120.5 79.7 123.1 76.6 123.1ZM76.7 112.5C74 112.5 71.9 114.6 71.8 117.3C71.8 119.9 73.9 122.1 76.5 122.1H76.6C79.2 122.1 81.4 119.9 81.4 117.3C81.4 116 80.9 114.9 80 113.9C79.1 113.1 77.9 112.5 76.7 112.5ZM76.6 120.4C74.9 120.4 73.5 119 73.5 117.3C73.5 115.6 74.9 114.2 76.6 114.2C77.4 114.2 78.2 114.5 78.8 115.1C79.4 115.7 79.7 116.5 79.7 117.3C79.7 119 78.3 120.4 76.6 120.4ZM76.6 114.7V115.2C75.5 115.2 74.5 116.2 74.5 117.3C74.5 118.4 75.5 119.4 76.6 119.4C77.8 119.4 78.7 118.5 78.7 117.3C78.7 116.7 78.5 116.2 78.1 115.8C77.7 115.4 77.1 115.2 76.6 115.2V114.7V114.7Z" fill="#3A9EC4"/>
<path d="M81.8 32.6C78.2 32.6 74.8 32.6 71.3 32.6C71.3 31.7 71.3 30.9 71.3 30C74.8 30 78.3 30 81.8 30C81.8 30.9 81.8 31.8 81.8 32.6Z" fill="#3A9EC4"/>
<path d="M82.3 33.1H70.8V29.5H82.3V33.1ZM71.9 32.1H81.4V30.5H71.9V32.1V32.1Z" fill="#3A9EC4"/>
</svg>
