<svg width="153" height="154" viewBox="0 0 153 154" fill="none" xmlns="http://www.w3.org/2000/svg">
<path d="M76.8 153.1C34.8 153.1 0.600006 118.9 0.600006 76.9C0.600006 34.9 34.8 0.700012 76.8 0.700012C118.8 0.700012 153 34.9 153 76.9C153 118.9 118.8 153.1 76.8 153.1ZM76.8 4.60002C37 4.60002 4.60001 37 4.60001 76.8C4.60001 116.6 37 149 76.8 149C116.6 149 149 116.6 149 76.8C149 37 116.6 4.60002 76.8 4.60002Z" fill="#3A9EC4"/>
<path d="M71.5 125.7C69.8 125.3 68 125 66.3 124.5C56.6 121.7 49 112.8 47.8 102.8C47.5 100.6 47.5 98.4 47.5 96.2C47.5 92 47.6 87.9 47.5 83.7C47.3 78 52.2 75.9 56.3 77.1C57.4 77.4 58.5 78 59.8 78.5C59.8 78.2 59.8 77.9 59.8 77.5C59.8 71.6 59.7 65.7 59.7 59.9C59.7 58 59.8 56.1 60.1 54.2C60.6 51.2 63.7 48.7 66.7 48.3C70.4 47.9 73.7 49.6 75.2 52.8C75.7 53.9 75.9 55.1 76 56.3C76.1 59.3 76 62.4 76 65.6C78.3 64.4 80.6 64.1 83 65C85.3 65.9 86.9 67.5 87.9 69.9C90.5 68.4 93.1 68.1 95.8 69.4C98.5 70.7 99.9 72.9 100.5 75.8C102.7 74.7 105 74.4 107.3 75.3C110.5 76.5 112.6 79.5 112.6 82.9C112.6 88.3 112.6 93.8 112.6 99.2C112.6 112.1 103.3 123.1 90.5 125.2C89.8 125.3 89.2 125.4 88.5 125.6C83 125.7 77.2 125.7 71.5 125.7ZM63.9 77.9C63.9 84.8 63.9 91.7 63.9 98.6C63.9 98.9 63.9 99.1 63.9 99.4C63.8 100.5 63 101.3 62 101.4C60.9 101.4 60 100.7 59.9 99.6C59.9 99.2 59.9 98.8 59.9 98.5C59.9 94.7 59.9 90.9 59.8 87.2C59.7 83.9 57.7 81.6 54.8 81.2C52.7 80.9 51.8 81.7 51.8 83.8C51.8 88.9 51.7 94 51.8 99.1C51.8 100.9 52 102.7 52.4 104.5C54.4 114 63 121.3 72.8 121.7C77.4 121.9 82.1 121.9 86.7 121.7C88.9 121.6 91.1 121.3 93.1 120.7C102 118 108.3 109.9 108.6 100.6C108.8 94.8 108.7 88.9 108.7 83.1C108.7 82.8 108.7 82.5 108.6 82.2C108.2 80.4 106.6 79.1 104.6 79.1C102.7 79.1 101 80.4 100.8 82.3C100.6 84 100.7 85.7 100.6 87.3C100.6 88.4 99.7 89.2 98.7 89.2C97.6 89.3 96.7 88.6 96.6 87.5C96.5 87.1 96.5 86.7 96.5 86.4C96.5 83.4 96.5 80.4 96.5 77.4C96.5 76 96.1 74.8 95 73.9C93.7 72.9 92.2 72.7 90.7 73.4C89.1 74.1 88.4 75.4 88.3 77.1C88.3 80.3 88.3 83.6 88.3 86.8C88.3 88.3 87.6 89.2 86.3 89.2C85 89.2 84.2 88.4 84.2 86.8C84.2 82.5 84.2 78.2 84.2 73.8C84.2 73.4 84.2 73 84.2 72.6C84 70.5 82.5 69 80.4 68.9C78.4 68.8 76.7 70.1 76.3 72.1C76.2 72.6 76.2 73 76.2 73.5C76.2 78 76.2 82.6 76.2 87.1C76.2 88.3 75.4 89.1 74.3 89.2C73.2 89.2 72.3 88.5 72.2 87.3C72.2 86.9 72.2 86.5 72.2 86.2C72.2 76.7 72.2 67.3 72.2 57.8C72.2 57.2 72.2 56.6 72.1 56.1C71.8 54.5 70.8 53.4 69.3 52.9C67.8 52.4 66.5 52.8 65.3 53.8C64.3 54.7 64 55.9 64 57.2C63.9 63.9 63.9 70.9 63.9 77.9Z" fill="#3A9EC4"/>
<path d="M70.2 28.1C71.8 28.4 73.5 28.6 75 29.1C85.5 32.4 91.9 39.4 94 50.2C94.7 53.7 94.5 57.2 93.7 60.7C93.3 62.3 92.4 63 91.1 62.7C89.9 62.4 89.3 61.3 89.7 59.7C90.9 54.5 90.4 49.4 87.9 44.6C83.5 36.2 76.5 32 67 32.3C56.1 32.6 47.3 40.8 45.8 51.5C45.4 54.3 45.6 57.1 46.2 59.8C46.6 61.4 45.8 62.6 44.3 62.7C43.2 62.7 42.5 62.1 42.2 60.8C41.1 56.2 41.2 51.5 42.6 47C45.7 36.8 54.5 29.5 65.1 28.3C65.3 28.3 65.5 28.2 65.7 28.1C67.3 28.1 68.7 28.1 70.2 28.1Z" fill="#3A9EC4"/>
<path d="M80.1 55.1C80.2 48.4 75.5 42.9 69.1 42.4C62.6 41.8 56.8 46.3 55.9 52.8C55.7 53.9 55.8 55.1 55.9 56.2C55.9 57.6 55.3 58.5 54.1 58.6C52.9 58.7 52.1 58.2 51.8 56.7C51.3 53.7 51.8 50.8 53 48.1C55.9 41.4 63 37.5 70.2 38.5C77.3 39.5 83.1 45.1 84 52.2C84.2 53.7 84.1 55.2 84 56.7C83.9 57.9 83 58.6 81.8 58.5C80.7 58.4 80 57.6 80 56.5C80.1 55.9 80.1 55.4 80.1 55.1Z" fill="#3A9EC4"/>
</svg>
