<svg width="153" height="153" viewBox="0 0 153 153" fill="none" xmlns="http://www.w3.org/2000/svg">
<path d="M76.3 152.6C34.3 152.6 0.100006 118.4 0.100006 76.4C0.100006 34.4 34.3 0.200012 76.3 0.200012C118.3 0.200012 152.5 34.4 152.5 76.4C152.5 118.4 118.4 152.6 76.3 152.6ZM76.3 4.10002C36.5 4.10002 4.10001 36.5 4.10001 76.3C4.10001 116.1 36.5 148.5 76.3 148.5C116.1 148.5 148.5 116.1 148.5 76.3C148.5 36.5 116.1 4.10002 76.3 4.10002Z" fill="#3A9EC4"/>
<path d="M104 122.8C100.9 121.1 98.3 118.8 96.8 115.5C96.3 114.5 96 113.5 95.5 112.5C95.4 112.6 95.4 112.6 95.3 112.7C93.4 115.7 90.8 116.8 87.4 115.9C77.8 113.6 68.2 111.3 58.6 108.9C54.9 108 52.8 104.5 53.7 100.8C58.6 80.3 63.6 59.7 68.6 39.2C69 37.7 69.3 36.2 69.7 34.7C70.7 31.2 74.1 29.2 77.6 30C87.3 32.3 97.1 34.7 106.8 37C110.8 38 112.8 41.4 111.8 45.4C109.8 53.6 107.8 61.9 105.8 70.1C105.6 70.8 105.8 71.1 106.4 71.4C109.3 72.8 112.2 74.3 115.1 75.8C116.9 76.7 118.1 78.1 118.8 80C120.1 83 120.6 86.2 120.7 89.5C121.1 97.9 121.4 106.4 121.8 114.8C121.8 115.2 121.9 115.7 122 116.1C122 118.3 122 120.5 122 122.7C121.4 122.7 120.8 122.7 120.2 122.7C119.2 122.3 118.8 121.6 118.8 120.5C118.4 110.7 118.1 100.8 117.6 91C117.5 88.5 117 86 116.6 83.6C116.2 81 114.8 79.1 112.2 78C109.7 76.9 107.4 75.6 105 74.4C104.9 74.6 104.8 74.7 104.8 74.7C104.2 77.2 103.5 79.8 103 82.3C102.9 82.7 103.1 83.3 103.4 83.6C104.9 85.5 106.5 87.4 108.1 89.3C107.2 90 106.4 90.7 105.6 91.4C103.6 89 101.6 86.8 99.7 84.5C96.5 80.6 93.3 76.7 90.1 72.9C89.6 72.3 89.1 71.8 88.5 71.3C87.3 70.4 86.1 70.4 84.9 71.4C83.8 72.3 83.4 73.5 84 74.8C84.4 75.7 84.8 76.6 85.3 77.4C89.2 84.3 93 91.2 96.9 98C97.7 99.4 98.1 101 98.1 102.6C98.1 104.3 98 106.1 98.1 107.8C98.5 112.7 100.4 116.8 104.9 119.4C106.7 120.4 106.8 121.3 105.4 122.7C104.8 122.8 104.4 122.8 104 122.8ZM71.2 42.3C66.9 60 62.7 77.6 58.4 95.3C70.4 98.2 82.3 101.1 94.2 104C94.8 102.4 94.7 100.9 93.8 99.4C91.3 95 88.8 90.6 86.3 86.2C84.5 82.9 82.5 79.6 80.9 76.2C78.8 71.9 82.1 67.1 86.9 67.3C89 67.4 90.6 68.6 91.9 70.1C94.3 72.9 96.6 75.7 98.9 78.5C99.2 78.9 99.6 79.3 100 79.8C102.4 70 104.7 60.5 107 50.8C95.1 48 83.2 45.2 71.2 42.3ZM93.5 107.1C81.5 104.2 69.6 101.3 57.6 98.4C57.3 99.5 57.1 100.5 56.9 101.5C56.4 103.6 57.4 105.3 59.5 105.8C69.2 108.2 78.9 110.5 88.6 112.8C90.3 113.2 92.1 112.3 92.6 110.6C93 109.5 93.2 108.4 93.5 107.1ZM71.9 39.1C83.9 42 95.8 44.9 107.8 47.8C108 46.9 108.2 46.1 108.4 45.3C109.1 42.4 108.2 40.9 105.3 40.2C102.7 39.6 100 38.9 97.4 38.3C90.5 36.6 83.6 35 76.8 33.3C75.2 32.9 73.6 33.7 73 35.2C72.5 36.4 72.3 37.7 71.9 39.1Z" fill="#3A9EC4"/>
<path d="M122.3 123.3H119.8C118.3 122.7 118.1 121.5 118 120.6C117.6 110.7 117.3 100.9 116.8 91.1C116.7 88.7 116.3 86.3 115.9 83.9V83.7C115.5 81.2 114.1 79.5 111.8 78.5C110.1 77.7 108.4 76.9 106.7 76C106.1 75.7 105.5 75.4 105 75.1L104.6 76.5C104.1 78.5 103.6 80.5 103.2 82.5C103.1 82.7 103.3 83.2 103.5 83.4C104.6 84.8 105.8 86.2 107 87.6L108.5 89.4L105.3 92.1L103.2 89.6C101.8 88 100.5 86.4 99.2 84.8C97.6 82.8 95.9 80.8 94.3 78.9C92.7 77 91.2 75.1 89.6 73.2C89.1 72.6 88.6 72.1 88 71.7C87 70.9 86.1 71 85 71.8C84.1 72.5 83.8 73.5 84.3 74.6C84.6 75.4 85 76.2 85.6 77.1C89.5 84 93.3 90.9 97.2 97.7C98 99.2 98.4 100.7 98.4 102.6C98.4 103.2 98.4 103.7 98.4 104.3C98.4 105.5 98.3 106.6 98.4 107.8C98.9 113.1 101 116.7 104.9 119.1C106 119.7 106.5 120.3 106.6 121C106.7 121.7 106.4 122.4 105.5 123.2L105.4 123.3H103.9L103.8 123.2C100.3 121.2 97.8 118.8 96.4 115.7C96.1 115 95.8 114.4 95.5 113.7C95.5 113.6 95.5 113.6 95.4 113.5C93.4 116.2 90.7 117.2 87.3 116.4C77.7 114.1 68.1 111.8 58.5 109.4C54.5 108.4 52.2 104.7 53.2 100.7C57.2 84.3 61.1 67.8 65.1 51.4L68.4 37.9C68.7 36.8 68.9 35.7 69.2 34.6C70.1 31.5 72.9 29.3 76 29.3C76.5 29.3 77.1 29.4 77.6 29.5C88.2 32 97.7 34.3 106.8 36.5C111 37.5 113.2 41.3 112.2 45.5L110.8 51.4C109.3 57.7 107.8 63.9 106.2 70.2C106.1 70.7 106.1 70.7 106.6 70.9C108.3 71.8 110 72.6 111.7 73.5C112.9 74.1 114.1 74.7 115.3 75.3C117.1 76.2 118.4 77.7 119.3 79.7C120.5 82.4 121.1 85.5 121.2 89.4C121.4 94.4 121.6 99.4 121.8 104.5L122.2 114.7C122.2 115 122.3 115.2 122.3 115.5C122.3 115.6 122.3 115.8 122.4 115.9L122.3 123.3ZM120.1 122.3H121.3V116.2C121.3 116.1 121.3 116 121.2 115.9C121.2 115.6 121.1 115.3 121.1 115L120.7 104.8C120.5 99.8 120.3 94.8 120.1 89.7C119.9 85.9 119.3 83 118.2 80.4C117.4 78.6 116.3 77.3 114.7 76.5C113.5 75.9 112.3 75.3 111.1 74.7C109.4 73.8 107.7 73 106 72.1C105.3 71.7 104.9 71.3 105.1 70.2C106.6 63.9 108.2 57.7 109.7 51.4L111.1 45.5C112 41.7 110.1 38.6 106.4 37.7C97.3 35.5 87.7 33.2 77.2 30.7C76.7 30.6 76.3 30.5 75.8 30.5C73.1 30.5 70.7 32.4 69.9 35C69.6 36.1 69.3 37.2 69.1 38.3L65.8 51.8C61.8 68.2 57.9 84.7 53.9 101.1C53.1 104.5 55 107.7 58.5 108.6C68.1 110.9 77.7 113.3 87.3 115.6C90.5 116.4 92.9 115.4 94.7 112.6C94.8 112.5 94.9 112.4 94.9 112.4L95.4 112L95.7 112.5C95.8 112.8 96 113.2 96.1 113.5C96.4 114.2 96.6 114.9 96.9 115.5C98.3 118.3 100.5 120.6 103.8 122.5H104.7C105.2 122 105.4 121.6 105.4 121.2C105.4 120.9 105 120.5 104.2 120C100 117.5 97.7 113.6 97.2 108C97.1 106.8 97.1 105.6 97.2 104.4C97.2 103.8 97.2 103.3 97.2 102.7C97.2 101.1 96.8 99.6 96.1 98.3C92.2 91.4 88.3 84.6 84.5 77.7C83.9 76.7 83.5 75.9 83.2 75.1C82.6 73.6 82.9 72.1 84.2 71.1C85.6 70 87.1 70 88.4 71C89 71.5 89.6 72 90.1 72.7C91.7 74.6 93.2 76.5 94.8 78.4C96.4 80.4 98.1 82.4 99.7 84.3C101 85.9 102.4 87.5 103.7 89.1L105.2 90.9L106.9 89.5L106 88.4C104.8 86.9 103.6 85.6 102.5 84.1C102.2 83.7 101.9 83 102 82.4C102.4 80.4 102.9 78.4 103.4 76.4L103.8 74.8C103.8 74.6 103.9 74.5 104 74.4L104.3 73.9L104.7 74.1C105.4 74.5 106.2 74.9 106.9 75.3C108.5 76.2 110.2 77 111.9 77.8C114.5 78.9 116.1 80.9 116.6 83.7V83.9C117 86.3 117.4 88.7 117.5 91.2C118 101.1 118.3 110.8 118.7 120.7C119.1 121.5 119.4 122 120.1 122.3ZM89.4 113.5C89.1 113.5 88.8 113.5 88.4 113.4C78.7 111.1 69 108.7 59.3 106.4C56.9 105.8 55.8 103.9 56.3 101.5C56.5 100.8 56.6 100.2 56.8 99.5L57.2 98L94 106.9L93.9 107.4C93.8 107.8 93.7 108.2 93.6 108.6C93.4 109.5 93.2 110.3 93 111.1C92.6 112.4 91.1 113.5 89.4 113.5ZM58 99L57.9 99.6C57.7 100.3 57.6 101 57.4 101.6C57 103.5 57.8 104.9 59.6 105.3C69.3 107.7 79 110 88.7 112.3C88.9 112.4 89.2 112.4 89.4 112.4C90.7 112.4 91.7 111.6 92.1 110.5C92.3 109.7 92.5 109 92.7 108.1C92.8 107.9 92.8 107.6 92.9 107.4L58 99ZM94.5 104.5L57.8 95.6L70.8 41.6L107.6 50.5L100.3 80.9L99.3 79.7C99 79.4 98.8 79.1 98.6 78.8L96.5 76.3C94.9 74.3 93.3 72.4 91.6 70.4C90.1 68.7 88.6 67.8 86.9 67.7C84.8 67.6 82.8 68.6 81.7 70.4C80.7 72.1 80.5 74.1 81.4 75.8C82.7 78.5 84.2 81.1 85.6 83.6C86 84.3 86.4 85 86.8 85.7C89.6 90.7 92 94.9 94.3 98.9C95.2 100.5 95.4 102.2 94.7 103.9L94.5 104.5ZM59 94.9L93.9 103.3C94.3 102 94.1 100.8 93.4 99.6C91.1 95.6 88.7 91.5 85.9 86.4C85.5 85.7 85.1 85 84.7 84.3C83.3 81.7 81.8 79.1 80.5 76.4C79.5 74.3 79.6 71.9 80.8 70C82.1 67.9 84.4 66.7 86.9 66.8C88.9 66.9 90.6 67.9 92.3 69.8C94 71.7 95.6 73.7 97.2 75.7L99.3 78.2C99.5 78.4 99.6 78.6 99.8 78.8L106.4 51.3L71.5 42.9L59 94.9ZM108.1 48.4L71.3 39.5L71.4 39C71.5 38.6 71.6 38.2 71.7 37.8C71.9 36.9 72.1 36 72.5 35.1C73 33.7 74.4 32.8 75.9 32.8C76.2 32.8 76.5 32.8 76.8 32.9C82.5 34.2 88.2 35.6 93.8 37L97.4 37.9C98.6 38.2 99.7 38.5 100.9 38.8C102.4 39.2 103.8 39.5 105.3 39.9C108.5 40.7 109.5 42.4 108.8 45.6C108.7 46.1 108.5 46.7 108.4 47.2L108.1 48.4ZM72.5 38.7L107.4 47.1L107.5 46.7C107.6 46.1 107.8 45.6 107.9 45.1C108.5 42.4 107.8 41.3 105.2 40.6C103.7 40.3 102.3 39.9 100.8 39.5C99.6 39.2 98.5 38.9 97.3 38.6L93.7 37.7C88 36.3 82.3 35 76.7 33.6C75.3 33.3 74 34 73.5 35.2C73.2 36 73 36.9 72.8 37.8C72.6 38.2 72.6 38.5 72.5 38.7Z" fill="#3A9EC4"/>
<path d="M57.7 50.5C57.5 56.1 56.2 61.4 53.5 66.3C53.2 66.8 52.8 67.4 52.3 67.5C51.8 67.6 51 67.4 50.6 67C50 66.5 50.2 65.8 50.5 65.1C51.5 62.7 52.6 60.4 53.3 58C55.3 50.6 54.3 43.5 50.8 36.7C50.7 36.5 50.6 36.4 50.5 36.2C50 35.2 50.2 34.2 51.1 33.8C51.9 33.4 52.8 33.7 53.4 34.7C55.1 37.7 56.3 40.9 56.9 44.2C57.3 46.2 57.4 48.4 57.7 50.5Z" fill="#3A9EC4"/>
<path d="M52 68C51.4 68 50.7 67.7 50.3 67.4C49.3 66.6 49.9 65.3 50 64.9C50.3 64.2 50.6 63.6 50.8 62.9C51.5 61.2 52.3 59.5 52.7 57.8C54.6 50.7 53.8 43.7 50.2 36.9L50.1 36.7C50 36.6 50 36.5 49.9 36.4C49.3 35.1 49.6 33.9 50.7 33.3C51.8 32.8 53 33.2 53.6 34.4C55.4 37.5 56.6 40.8 57.2 44.1C57.5 45.6 57.6 47.1 57.8 48.6C57.9 49.3 57.9 49.9 58 50.6C57.8 56.5 56.4 61.8 53.8 66.7C53.6 67 53.1 67.9 52.3 68.1C52.3 68 52.2 68 52 68ZM51.9 34C51.7 34 51.6 34 51.4 34.1C50.7 34.5 50.7 35.2 51 35.9C51 36 51.1 36.1 51.1 36.2C51.1 36.3 51.2 36.4 51.2 36.5C54.8 43.5 55.7 50.8 53.7 58.1C53.2 59.9 52.4 61.7 51.7 63.4C51.4 64 51.1 64.7 50.9 65.3C50.5 66.2 50.7 66.5 50.9 66.7C51.2 67 51.8 67.1 52.1 67.1C52.4 67 52.7 66.6 53 66.2C55.6 61.5 56.9 56.4 57.1 50.7C57 50.1 56.9 49.4 56.9 48.8C56.7 47.3 56.6 45.8 56.3 44.4C55.7 41.2 54.6 38.1 52.9 35C52.7 34.3 52.3 34 51.9 34Z" fill="#3A9EC4"/>
<path d="M50.1 50.6C50 55.1 48.9 59.2 46.7 63.1C46.3 63.8 45.7 64.3 44.9 64.1C44.4 63.9 43.8 63.4 43.6 62.9C43.4 62.5 43.7 61.8 43.9 61.3C45.8 57.7 46.8 53.9 46.7 49.8C46.6 46.4 45.7 43.1 44.1 40.1C43.9 39.7 43.6 39.3 43.5 38.8C43.4 38 43.8 37.4 44.5 37.1C45.3 36.8 46 37.1 46.5 37.9C47.9 40.3 48.9 42.8 49.4 45.6C49.8 47.3 49.9 48.9 50.1 50.6Z" fill="#3A9EC4"/>
<path d="M45.3 64.6C45.1 64.6 44.9 64.6 44.8 64.5C44.1 64.3 43.4 63.7 43.2 63C42.9 62.3 43.4 61.3 43.6 61C45.5 57.5 46.4 53.7 46.3 49.8C46.2 46.5 45.3 43.3 43.8 40.3L43.7 40.1C43.5 39.7 43.3 39.3 43.2 38.9C43 37.9 43.5 37 44.5 36.6C45.5 36.2 46.6 36.6 47.1 37.6C48.6 40.2 49.5 42.8 50 45.4C50.2 46.6 50.3 47.7 50.4 48.9C50.5 49.4 50.5 49.9 50.6 50.4C50.5 55 49.3 59.3 47.1 63.2C46.5 64.4 45.8 64.6 45.3 64.6ZM45.2 37.5C45.1 37.5 44.9 37.5 44.8 37.6C44.2 37.8 44 38.2 44.1 38.8C44.1 39.1 44.3 39.4 44.5 39.7L44.6 39.9C46.2 43 47.1 46.3 47.2 49.8C47.3 53.9 46.4 57.8 44.4 61.5C44.1 62 44 62.5 44.1 62.7C44.2 63 44.7 63.4 45.1 63.6C45.6 63.8 46 63.3 46.3 62.8C48.4 59 49.5 54.9 49.6 50.6C49.5 50.2 49.5 49.6 49.4 49.1C49.3 48 49.2 46.8 49 45.7C48.6 43.2 47.6 40.7 46.2 38.2C46 37.9 45.7 37.5 45.2 37.5Z" fill="#3A9EC4"/>
<path d="M42.7 50.5C42.7 53.8 41.9 56.8 40.3 59.6C39.6 60.8 38.8 61.1 37.9 60.7C37 60.2 36.9 59.3 37.5 58.1C40.2 53.2 40.2 48.2 37.5 43.3C36.7 41.9 37.2 40.6 38.6 40.5C39.4 40.4 39.9 40.9 40.3 41.5C41.8 44.2 42.7 47.3 42.7 50.5Z" fill="#3A9EC4"/>
<path d="M38.6 61.3C38.3 61.3 37.9 61.2 37.6 61C36.4 60.4 36.2 59.1 37 57.7C39.6 52.9 39.6 48.1 37 43.3C36.5 42.4 36.4 41.4 36.8 40.7C37.1 40.1 37.7 39.8 38.5 39.7C39.4 39.6 40.1 40.1 40.7 41C42.4 44 43.3 47.1 43.3 50.4C43.3 53.8 42.5 56.8 40.8 59.7C40 61.1 39.2 61.3 38.6 61.3ZM38.6 40.8H38.5C38.2 40.8 37.8 40.9 37.6 41.3C37.4 41.7 37.5 42.3 37.8 42.9C40.6 48 40.6 53.1 37.8 58.2C37.3 59.1 37.4 59.8 38 60.1C38.8 60.5 39.4 59.8 39.8 59.2C41.4 56.4 42.2 53.6 42.1 50.4C42.1 47.3 41.3 44.4 39.7 41.5C39.4 41.1 39.1 40.8 38.6 40.8Z" fill="#3A9EC4"/>
<path d="M35.7 50.5C35.7 52.8 35.1 54.8 33.9 56.6C33.2 57.6 32.3 57.9 31.4 57.3C30.6 56.8 30.5 55.8 31.1 54.8C32.8 52 32.8 49.1 31.1 46.3C30.5 45.3 30.6 44.4 31.4 43.8C32.2 43.3 33.1 43.5 33.8 44.5C35.1 46.4 35.7 48.4 35.7 50.5Z" fill="#3A9EC4"/>
<path d="M32.4 58.1C32 58.1 31.6 58 31.2 57.7C30.2 57 30 55.8 30.8 54.5C32.4 51.8 32.4 49.2 30.8 46.5C30 45.2 30.2 44 31.3 43.4C32.3 42.7 33.6 43.1 34.4 44.3C35.6 46.2 36.3 48.3 36.3 50.5C36.3 52.9 35.7 55 34.4 56.9C33.8 57.7 33.1 58.1 32.4 58.1ZM32.4 44.1C32.2 44.1 32 44.2 31.8 44.3C31.1 44.8 31.3 45.5 31.6 46.1C33.4 49.1 33.4 52.2 31.6 55.1C31.3 55.6 31 56.4 31.7 56.9C32.3 57.3 32.9 57.1 33.5 56.3C34.6 54.5 35.2 52.6 35.2 50.5C35.2 48.5 34.6 46.6 33.5 44.9C33.2 44.3 32.8 44.1 32.4 44.1Z" fill="#3A9EC4"/>
<path d="M74.7 104.7C75.5 104.7 76.1 105.4 76 106C75.9 106.8 75.4 107.2 74.6 107.2C73.9 107.2 73.3 106.5 73.4 105.9C73.6 105.2 74 104.8 74.7 104.7Z" fill="#3A9EC4"/>
<path d="M74.6 107.8C74.2 107.8 73.7 107.6 73.4 107.2C73.1 106.8 72.9 106.3 73 105.9C73.1 105 73.8 104.4 74.7 104.3C75.3 104.3 75.8 104.6 76.1 104.9C76.4 105.3 76.5 105.7 76.5 106.2C76.4 107.1 75.7 107.7 74.6 107.8ZM74.7 105.2C74.3 105.2 74 105.5 73.9 106C73.9 106.2 74 106.4 74.1 106.5C74.2 106.7 74.4 106.8 74.6 106.8V107.3V106.8C75.3 106.8 75.4 106.4 75.5 106C75.5 105.8 75.5 105.7 75.3 105.5C75.2 105.3 74.9 105.2 74.7 105.2Z" fill="#3A9EC4"/>
<path d="M87 37.5C88.8 37.9 90.7 38.4 92.6 38.8C93.3 39 94.1 39.1 94.8 39.3C95.8 39.6 96.3 40.4 96.2 41.2C96 42.2 95.2 42.7 94.2 42.5C91.5 41.9 88.9 41.3 86.2 40.6C85.3 40.4 84.9 39.6 85.1 38.7C85.3 38 85.9 37.5 87 37.5Z" fill="#3A9EC4"/>
<path d="M94.6 43.2C94.4 43.2 94.2 43.2 94 43.1C91.5 42.5 88.8 41.9 86 41.2C84.9 40.9 84.3 39.9 84.5 38.7C84.7 37.6 85.5 37 86.8 37H86.9L93.2 38.5C93.7 38.6 94.3 38.7 94.8 38.9C96 39.2 96.8 40.3 96.5 41.4C96.5 42.5 95.7 43.2 94.6 43.2ZM86.9 38C86 38 85.7 38.4 85.6 38.9C85.5 39.5 85.8 40 86.3 40.2C89.1 40.9 91.7 41.5 94.3 42.1C95 42.3 95.6 41.9 95.7 41.2C95.8 40.6 95.4 40.1 94.7 39.9C94.2 39.8 93.7 39.6 93.1 39.5L86.9 38Z" fill="#3A9EC4"/>
</svg>
