<svg width="154" height="153" viewBox="0 0 154 153" fill="none" xmlns="http://www.w3.org/2000/svg">
<path d="M77 152.6C35 152.6 0.799988 118.4 0.799988 76.4C0.799988 34.4 35 0.200012 77 0.200012C119 0.200012 153.2 34.4 153.2 76.4C153.2 118.4 119 152.6 77 152.6ZM77 4.10002C37.2 4.10002 4.79999 36.5 4.79999 76.3C4.79999 116.1 37.2 148.5 77 148.5C116.8 148.5 149.2 116.1 149.2 76.3C149.2 36.5 116.8 4.10002 77 4.10002Z" fill="#3A9EC4"/>
<path d="M108.7 124.6H45.2C40.1 124.6 35.9 120.4 35.9 115.3V28.1H117.9V115.3C118 120.4 113.8 124.6 108.7 124.6ZM40 32.1V115.3C40 118.2 42.4 120.6 45.3 120.6H108.8C111.7 120.6 114.1 118.2 114.1 115.3V32.1H40V32.1Z" fill="#3A9EC4"/>
<path d="M64.3 66.5C50.6 68 38.8 63.6 38.7 63.5L37.2 67.2C37.8 67.4 46.7 70.8 58.4 70.8C59.7 70.8 61 70.7 62.4 70.7C62.8 69.3 63.5 67.8 64.3 66.5Z" fill="#3A9EC4"/>
<path d="M85.1 60.9C86.6 61.8 87.9 62.9 89 64.3C103 62.5 115.1 67.2 115.2 67.2L116.7 63.5C116 63.2 101.5 57.7 85.1 60.9Z" fill="#3A9EC4"/>
<path d="M77 103.7C66.2 103.7 57.5 95 57.5 84.2C57.5 66.8 74.9 50.2 75.6 49.5L77 48.2L78.4 49.5C79.1 50.2 96.5 66.8 96.5 84.2C96.5 95 87.7 103.7 77 103.7ZM77 53.8C73 58 61.5 71.2 61.5 84.2C61.5 92.7 68.5 99.7 77 99.7C85.5 99.7 92.5 92.7 92.5 84.2C92.5 71.2 81 58 77 53.8Z" fill="#3A9EC4"/>
</svg>
