<svg width="153" height="153" viewBox="0 0 153 153" fill="none" xmlns="http://www.w3.org/2000/svg">
<path d="M35.9 72.3C35.9 95.9 51.4 117 75.5 125.9C76 126.1 76.5 126.1 76.9 125.9C100.9 117 116.5 96 116.5 72.3V40.4C116.5 39.3 115.6 38.4 114.5 38.4H38C36.9 38.4 36 39.3 36 40.4V72.3H35.9ZM112.5 72.3C112.5 93.7 98.5 113 76.8 121.6L76.2 121.8L75.6 121.6C69.4 119.2 63.8 115.8 58.9 111.7L57.5 110.5L59 109.4C59.6 108.9 60.7 108.4 62.3 107.5C71.2 102.8 95 90.3 109.6 59.9L112.5 54V72.3ZM86.3 42.4H111.9L111.3 44.3C99.4 83.5 69.9 98.9 58.8 104.7C57.3 105.5 56 106.2 55.6 106.5L54.5 107.4L53.6 106.4C48.5 100.8 44.8 94.4 42.5 87.5L42.2 86.5L43.1 85.9C44 85.3 45.4 84.5 47.3 83.5C56.6 78.7 75.8 68.7 86 43.4L86.3 42.4ZM40 42.4H81.9L80.9 44.5C70.9 66.4 53.6 75.4 46.1 79.3C44.7 80 43.5 80.7 42.9 81.1L40.9 82.6L40.5 80.2C40.1 77.6 39.9 75 39.9 72.4V42.4H40Z" fill="#3A9EC4"/>
<path d="M76.2 152.6C34.2 152.6 0 118.4 0 76.4C0 34.4 34.2 0.200012 76.2 0.200012C118.2 0.200012 152.4 34.4 152.4 76.4C152.4 118.4 118.3 152.6 76.2 152.6ZM76.2 4.10002C36.4 4.10002 4 36.5 4 76.3C4 116.1 36.4 148.5 76.2 148.5C116 148.5 148.4 116.1 148.4 76.3C148.4 36.5 116.1 4.10002 76.2 4.10002Z" fill="#3A9EC4"/>
</svg>
