<svg width="153" height="153" viewBox="0 0 153 153" fill="none" xmlns="http://www.w3.org/2000/svg">
<path d="M76.5 153C34.1459 153 0 118.526 0 76.5C0 34.4742 34.4743 0 76.5 0C118.526 0 153 34.4742 153 76.5C153 118.526 118.854 153 76.5 153ZM76.5 3.9399C36.4442 3.9399 3.93993 36.4442 3.93993 76.5C3.93993 116.556 36.4442 149.06 76.5 149.06C116.556 149.06 149.06 116.556 149.06 76.5C149.06 36.4442 116.556 3.9399 76.5 3.9399Z" fill="#3A9EC4"/>
<path d="M125.749 93.2446C118.526 113.601 99.4828 128.376 76.5 128.376C47.9356 128.376 24.2961 105.064 24.2961 76.5C24.2961 47.9356 47.6073 24.2961 76.5 24.2961C103.423 24.2961 125.749 44.9807 128.376 71.2468H132.644C130.017 42.6824 106.049 20.0279 76.5 20.0279C45.309 20.0279 20.3562 45.309 20.3562 76.5C20.3562 107.691 45.6374 132.972 76.5 132.972C101.453 132.972 122.794 116.556 130.017 93.573H125.749V93.2446Z" fill="#3A9EC4"/>
<path d="M139.539 70.9185L130.346 87.0064L121.152 70.9185H139.539Z" fill="#3A9EC4"/>
<path d="M59.0987 75.8433C61.7253 74.2017 63.367 71.5751 63.367 68.2918C63.367 63.0386 59.7554 59.7554 54.1738 59.7554C49.9056 59.7554 46.294 61.7253 44.9807 65.0086V65.3369L47.6073 68.6202L47.9356 67.9635C49.2489 65.3369 51.5472 64.0236 54.1738 64.0236C57.1288 64.0236 59.0987 65.6652 59.0987 68.6202C59.0987 70.2618 58.4421 71.2468 57.4571 72.2318C56.4721 73.2167 55.1588 73.5451 53.8455 73.5451H51.2189V78.1416H54.1738C57.7854 78.1416 60.412 80.1116 60.412 83.3949C60.412 86.6781 58.1137 88.6481 54.5021 88.6481C51.5472 88.6481 48.9206 87.0064 47.279 84.3798L46.9507 83.7232L44.324 87.0064V87.3348C45.9657 90.9463 49.5772 93.2446 54.5021 93.2446C57.4571 93.2446 60.0837 92.2597 62.0537 90.618C64.0236 88.9764 65.0086 86.3498 65.0086 83.3949C64.6803 79.7833 62.382 76.8283 59.0987 75.8433Z" fill="#3A9EC4"/>
<path d="M78.7983 72.2318C75.8434 72.2318 73.5451 73.2167 72.2318 74.8584C72.8884 72.2317 74.5301 69.6051 76.1717 67.6352C78.47 65.0086 81.0966 63.6953 84.0515 62.7103H84.7082L82.7382 59.0987H82.4099C78.7983 60.0837 74.8584 62.382 71.5751 65.9936C68.2919 69.6051 66.3219 75.1867 66.3219 80.7682C66.3219 84.0515 67.3069 87.0064 69.2768 89.633C71.2468 91.9313 74.2017 93.2446 77.8133 93.2446C80.4399 93.2446 83.0665 92.2597 85.0365 90.2897C87.0064 88.3197 87.9914 85.6931 87.9914 82.4099C87.9914 79.4549 87.0064 76.8283 85.3648 74.8584C83.7232 73.2167 81.4249 72.2318 78.7983 72.2318ZM83.3949 83.0665C83.3949 84.7081 82.7382 86.0215 81.7532 87.3348C80.7682 88.6481 79.455 88.9764 77.8133 88.9764C75.515 88.9764 73.8734 88.3198 72.8884 86.6781C71.5751 85.0365 71.2468 83.3948 71.2468 81.0966C71.9035 78.7983 74.2017 76.5 77.485 76.5C81.0966 76.5 83.3949 79.1266 83.3949 83.0665Z" fill="#3A9EC4"/>
<path d="M106.378 74.8584C104.408 72.8884 101.781 71.9034 98.8262 71.9034C98.1695 71.9034 97.5129 71.9034 96.8562 72.2318L97.8412 64.3519H109.333V59.7554H93.9013L91.603 76.8283L92.2597 76.5C93.573 75.8433 95.2146 75.8433 97.1846 75.8433C99.4828 75.8433 101.124 76.5 102.438 77.8133C103.751 79.1266 104.408 80.4399 104.408 82.4099C104.408 84.3798 103.751 85.6931 102.766 87.0064C101.453 88.3197 100.139 88.6481 98.4979 88.6481C95.8713 88.6481 92.9163 87.0064 91.603 85.0365L91.2747 84.3798L88.6481 87.6631V87.9914C90.618 91.2747 94.2296 92.9163 98.1695 92.9163C101.124 92.9163 103.751 91.9313 106.049 89.9614C108.019 87.9914 109.333 85.3648 109.333 82.0815C109.333 79.1266 108.348 76.8283 106.378 74.8584Z" fill="#3A9EC4"/>
</svg>
