<svg width="437" height="136" viewBox="0 0 437 136" fill="none" xmlns="http://www.w3.org/2000/svg">
<path d="M62.8 39.6C62.9 37.9 62.8 36.6 62.3 35.4C62 34.6 61.5 34 60.9 33.5L60.4 33.2C60.3 33.1 60.1 33 59.9 32.9C59.5 32.7 59.1 32.6 58.8 32.6C57.3 32.4 56 32.7 55.1 33.1C54.2 33.4 53.2 33.9 52.2 34.5C51.1 35.2 50.1 35.9 49 36.9C47.9 36 46.9 35.2 45.8 34.5C44.8 33.9 43.8 33.4 42.9 33.1C42 32.8 40.7 32.4 39.1 32.6C38.8 32.7 38.4 32.7 38 32.9C37.8 33 37.6 33.1 37.5 33.2L37 33.5C36.4 34 35.9 34.6 35.6 35.4C35.1 36.6 34.9 37.9 35.1 39.6C35.3 42 36.1 44.5 37.4 47.3C37.8 48.1 38.2 48.9 38.6 49.6C38.5 49.8 38.4 49.9 38.3 50.1C37.6 51.4 36.8 53.1 36.1 55.1C35.7 56.3 35.5 57.3 35.4 58.3C35.3 59.3 35.3 60.7 35.9 62C36.2 62.7 36.7 63.3 37.4 63.8C37.4 63.8 37.5 63.9 37.6 63.9L37.8 64C38 64.1 38.1 64.2 38.3 64.2H38.4C38.7 64.3 39.1 64.4 39.5 64.5C40.8 64.7 42.1 64.5 43.7 64C45.4 63.4 47.1 62.5 48.9 61.2C50.7 62.5 52.4 63.4 54.1 64C55.3 64.4 56.3 64.6 57.3 64.6C57.6 64.6 57.9 64.6 58.3 64.5C58.7 64.4 59.1 64.3 59.4 64.2L59.5 64.1C59.6 64 59.8 64 59.9 63.9L60.2 63.7C60.3 63.7 60.3 63.6 60.4 63.5C61 63.1 61.5 62.4 61.8 61.7C62.4 60.4 62.4 59 62.3 58C62.2 57 62 56 61.6 54.8C60.9 52.7 60.1 51 59.4 49.8L59.1 49.3C59.5 48.5 60 47.7 60.3 47C61.9 44.5 62.6 42 62.8 39.6ZM38.3 34.9L38.6 35.1L38.8 35.3L39 35.2C39.1 35.2 39.1 35.1 39.2 35.1C39.3 35 39.5 35 39.7 34.9C40.4 34.7 41.3 34.8 42.4 35C43.2 35.2 44.1 35.6 45 36.1C46 36.6 46.9 37.2 47.9 37.9C46.9 38.9 45.9 39.9 45 40.8C44.2 41.7 43.7 42.4 43.3 42.8L42.7 43.5L43 43.7L42.7 43.5L42.1 44.3C41.8 44.7 41.3 45.4 40.8 46.1C40.7 46 40.6 45.8 40.6 45.7C39.3 43.1 38.5 41.1 38.2 39.2C38 37.9 38 37 38.3 36.3C38.4 35.9 38.6 35.6 38.9 35.3L38.3 34.9ZM59.9 36.3C60.1 37 60.2 38 60 39.2C59.7 41.1 58.9 43.2 57.6 45.7C57.5 45.8 57.4 46 57.4 46.1C56.9 45.3 56.4 44.7 56.1 44.2L55.5 43.5L55.2 43.7L55.5 43.5L54.9 42.8C54.5 42.3 53.9 41.6 53.2 40.8C52.3 39.8 51.4 38.8 50.3 37.9C51.3 37.2 52.2 36.6 53.2 36.1C54.1 35.6 55 35.3 55.8 35C56.9 34.7 57.8 34.7 58.5 34.9C58.7 35 58.9 35 59.1 35.1C59.1 35.1 59.2 35.1 59.3 35.2L59.5 35.4C59.5 35.6 59.7 35.9 59.9 36.3ZM52.1 41.7C52.7 42.4 53.2 43 53.6 43.4L55.1 45.3C55.4 45.8 55.9 46.4 56.4 47.2C56.4 47.3 56.5 47.3 56.5 47.4C55.6 49 54.5 50.5 53.4 51.9C52 53.7 50.5 55.3 49 56.9C47.4 55.4 45.9 53.7 44.6 51.9C43.5 50.5 42.4 48.9 41.5 47.4L41.6 47.2C42.1 46.4 42.6 45.8 42.9 45.3L44.3 43.4C44.7 43 45.2 42.3 45.9 41.6C46.8 40.6 47.8 39.7 48.8 38.8C48.9 38.7 48.9 38.7 49 38.6C49.1 38.7 49.1 38.7 49.2 38.8C50.2 39.8 51.1 40.7 52.1 41.7ZM37.9 55.6C38.2 54.2 38.7 52.7 39.5 51.1C40.2 52.2 40.9 53.2 41.7 54.2C43.2 56.1 44.7 57.8 46.4 59.2C45.1 60.2 43.9 60.9 42.8 61.4C41.7 61.9 40.9 62.1 40.2 62.1H40C39.2 62.1 38.6 61.7 38.2 61C37.8 60.4 37.7 59.5 37.7 58.4C37.6 57.6 37.7 56.6 37.9 55.6ZM57.9 62.1C57.2 62.1 56.3 61.9 55.3 61.4C54.2 60.9 53 60.2 51.7 59.2C53.3 57.7 54.9 56.1 56.4 54.2C57.2 53.2 57.9 52.1 58.6 51.1C59.4 52.7 59.9 54.2 60.2 55.6C60.4 56.6 60.6 57.6 60.6 58.4C60.6 59.5 60.4 60.4 60.1 61C59.7 61.7 59.1 62.1 58.3 62.1H57.9Z" fill="#3A9EC4"/>
<path d="M31.3 27.2C50.7 10.3 73.7 4.89998 82.5 15.1C91.3 25.3 82.7 47.2 63.3 64.1C62.2 65 61.2 65.9 60.1 66.8C63.4 64.6 66.7 62.1 69.8 59.4C90.9 41.1 100.2 17.3 90.6 6.29998C81 -4.70002 56.2 0.999987 35.1 19.3C23.3 29.6 15.1 41.6 12 52.1C15.7 43.8 22.3 35 31.3 27.2Z" fill="#3A9EC4"/>
<path d="M70 66.6C50.6 83.5 27.6 88.9 18.8 78.7C9.99997 68.5 18.6 46.6 38 29.7C39.1 28.8 40.1 27.9 41.2 27C37.9 29.2 34.6 31.7 31.5 34.4C10.4 52.7 1.09998 76.5 10.7 87.5C20.1 98.3 44.2 92.9 65.1 75.4C63.8 77.4 46.6 118 35.6 118C28.6 118 15.9 103.4 0.599976 79.9C0.599976 79.9 20.1 135.7 36.4 135.8C53.4 136 80.5 65.5 87.6 46.3C88.3 44.7 88.9 43.1 89.3 41.5C85.6 49.9 78.9 58.8 70 66.6Z" fill="#3A9EC4"/>
<path d="M338.1 73.5H306.3L346.5 26.8L266.5 65.2H298.3L260 110L338.1 73.5Z" fill="#3A9EC4"/>
<path d="M197.6 40.9V72.2C197.6 78.3 192.6 83.3 186.5 83.3C180.4 83.3 175.4 78.3 175.4 72.2V40.9H163V72.2C163 85.2 173.5 95.7 186.5 95.7C199.5 95.7 210 85.2 210 72.2V40.9H197.6V40.9Z" fill="white"/>
<path d="M129.1 40.9C114 40.9 101.7 53.2 101.7 68.3C101.7 80.4 109.5 90.7 120.4 94.3V80.6C116.6 77.9 114 73.4 114 68.3C114 60 120.8 53.2 129.1 53.2C137.4 53.2 144.2 60 144.2 68.3C144.2 73.4 141.7 77.8 137.8 80.6V94.3C148.7 90.7 156.5 80.4 156.5 68.3C156.5 53.2 144.2 40.9 129.1 40.9Z" fill="white"/>
<path d="M420.8 74.2C427 71.2 430 65.8 430 58.4C430 47.5 423.9 40.9 409.8 40.9C409.4 40.9 406.4 40.9 401.1 41C395.7 41.1 392.4 41.1 391.3 41.1V52.8H404.8C407.6 52.7 409.1 52.7 409.3 52.7C414.4 52.7 416.9 54.7 416.9 58.6C416.9 62.8 414.1 64.9 408.4 64.9H405H403.9H391.4V95.8H403.9V76.7H408.5L421.8 95.8H437L420.8 74.2Z" fill="white"/>
<path d="M129.1 83.3C127.3 83.3 125.5 83 123.9 82.4V103.9H134.2V82.4C132.7 82.9 130.9 83.3 129.1 83.3Z" fill="#3A9EC4"/>
<path d="M267.1 95.7L244.4 41H233.2L210.5 95.7H223.1L238.5 57L244.5 72.3H236.7L232.3 83.3H248.9L253.8 95.7H267.1Z" fill="white"/>
<path d="M388.1 95.7L365.4 41H354.2L331.5 95.7H344L359.4 57L365.5 72.3H357.6L353.3 83.3H369.8L374.7 95.7H388.1Z" fill="white"/>
</svg>
