<svg width="416" height="732" viewBox="0 0 416 732" fill="none" xmlns="http://www.w3.org/2000/svg">
<path d="M83 327.4L43.8 304.3V339L83 362V327.4ZM81.3 359.1L45.5 338V307.3L81.3 328.4V359.1Z" fill="#4A98B9"/>
<path d="M83.5 413.1L90 409.6V368.5L34.7 336L34.1 335.6L27.8 342.8V380.2L83.1 412.8L83.5 413.1ZM34.2 347.5V375.7L29.5 378.4V344.7L34.2 347.5ZM56.4 360.6L52.2 363L42.6 357.3L46.8 354.9L56.4 360.6ZM59.1 362.1V368.6L53.1 372.1V364.4L58.1 361.5L59.1 362.1ZM41.8 358.8L51.4 364.5V371L41.8 365.3V358.8V358.8ZM45 369.2L53.1 374V373.9L53.2 374.1L59.1 370.6V385.4L45 377.1V369.2ZM40.1 356.8V366.3L43.3 368.2V378.1L60.8 388.5V363.2L68.3 367.6V390.9L82.7 399.4V403.4L35.9 375.7V348.5L45.2 354L40.1 356.8ZM82.7 397.4L70 389.9V368.6L82.7 376V397.4ZM35 377.1L82.7 405.3V410.7L30.3 379.9L35 377.1ZM84.4 410.7V375.8L88.4 371.4V408.6L84.4 410.7ZM34.5 337.8L88 369.3L83.4 374.4L58.4 359.7L58.3 359.5L58.2 359.6L47.1 353.1L47 352.9L46.9 353L30 343.1L34.5 337.8Z" fill="#4A98B9"/>
<path d="M42.5 449.6L27 440.5V455.4L42.5 464.5V449.6ZM40.8 461.5L28.7 454.4V443.4L40.8 450.5V461.5Z" fill="#4A98B9"/>
<path d="M1.19999 125.5L28.4 141.2V270.4L22.1 272.5L21.5 272.7V463.7H22.3L21.7 464.3L26.9 469.8V731.6H28.6V471.6L63.2 508.1V731.6H64.9V508.6L66.8 508.7V731.6H68.5V508.9L73.3 509.2V731.7H75V509.3L107.7 511.3L107.8 510.5L108.1 511.3L113.7 509.4V731.7H115.4V183.7L176.8 189.4L193.9 183.7V731.7H195.6V183.1L202.4 180.8V731.6H204.1V180.3L403.2 113.9V731.6H404.9V113.3L415.5 109.8L415.2 109H416V100H415.2L415.6 99.3L245.9 0.699997L245.6 0.5L7.89999 79.9L8.19999 80.7L7.39999 80.5L0.899994 115.5L1.69999 115.7H0.899994V124.7H1.69999L1.19999 125.5ZM106.7 509.5L64.5 507L28.6 469.2V468.6H28L23.1 463.5V274.8L106.6 323.9V509.5H106.7ZM107.6 323.4L107.7 323.2L107.8 323.4H107.6ZM107.7 322.6L24.4 273.6L29.2 272L112.5 321L107.7 322.6ZM113.6 507.5L108.4 509.3V324.1L113.6 322.3V507.5ZM113.6 319.6L30.1 270.5V142.2L99.2 182.1L113.6 183.4V319.6ZM175.8 187.6L100.3 180.6V173.3L175.8 180.3V187.6ZM414.3 108.4L177.5 187.3V180.1L414.3 101.2V108.4ZM8.89999 81.4L245.4 2.3L413.1 99.8L176.6 178.6L99.8 171.5L2.59999 115.3L8.89999 81.4ZM2.49999 117.2L98.6 172.8V179.9L2.49999 124.3V117.2Z" fill="#4A98B9"/>
</svg>
